<svg width="123" height="128" viewBox="0 0 123 128" fill="none" xmlns="http://www.w3.org/2000/svg">
<path d="M29.1504 50.4081C26.2001 59.1222 32.9332 64.1819 36.6684 65.6225C29.091 63.057 23.3682 69.5656 21.454 73.1405C24.0195 65.563 17.5109 59.8403 13.936 57.9261C22.7784 60.4975 27.7633 53.9855 29.1504 50.4081Z" stroke="black" stroke-width="2" stroke-linejoin="round"/>
<path d="M85.8329 101.272C82.8826 109.986 89.6156 115.045 93.3509 116.486C85.7735 113.921 80.0507 120.429 78.1365 124.004C80.702 116.427 74.1934 110.704 70.6185 108.79C79.4609 111.361 84.4458 104.849 85.8329 101.272Z" stroke="black" stroke-width="2" stroke-linejoin="round"/>
<path d="M80.857 16.182C76.1857 29.9794 86.8464 37.9906 92.7606 40.2716C80.7629 36.2096 71.7018 46.5147 68.671 52.1751C72.733 40.1774 62.4278 31.1164 56.7675 28.0855C70.7679 32.157 78.6607 21.8463 80.857 16.182Z" stroke="black" stroke-width="3" stroke-linejoin="round"/>
</svg>
