<svg width="70" height="72" viewBox="0 0 70 72" fill="none" xmlns="http://www.w3.org/2000/svg">
<rect width="70" height="70" rx="10" fill="#ECF9FF" fill-opacity="0.8"/>
<g filter="url(#filter0_f_1_2956)">
<rect x="22" y="35" width="27" height="27" rx="10" fill="#FFC350" fill-opacity="0.25"/>
</g>
<g clip-path="url(#clip0_1_2956)">
<path d="M34.4349 15.1292L16.5232 23.7762C16.2986 23.8847 16.1559 24.112 16.1559 24.3614V45.6386C16.1559 45.888 16.2987 46.1153 16.5232 46.2237L34.4349 54.8708C34.7918 55.0431 35.2079 55.0431 35.5649 54.8708L53.4765 46.2237C53.7011 46.1153 53.8438 45.888 53.8438 45.6386V24.3614C53.8438 24.112 53.701 23.8847 53.4765 23.7762L35.5649 15.1292C35.2079 14.9569 34.7918 14.9569 34.4349 15.1292Z" fill="#FFE17D"/>
<path d="M16.264 24.0057C16.1957 24.1097 16.1559 24.2321 16.1559 24.3614V45.6386C16.1559 45.888 16.2987 46.1153 16.5232 46.2238L34.4349 54.8707C34.6133 54.9569 34.8066 55 34.9999 55V33.0507L16.264 24.0057Z" fill="#FFC350"/>
<path d="M53.7358 24.0057C53.8041 24.1097 53.8438 24.2321 53.8438 24.3614V45.6386C53.8438 45.888 53.7011 46.1153 53.4766 46.2238L35.5649 54.8707C35.3865 54.9569 35.1932 55 34.9999 55V33.0507L53.7358 24.0057Z" fill="#FFD164"/>
<path d="M21.5161 44.5044C21.4216 44.5044 21.3251 44.4835 21.2344 44.4397L18.469 43.1047C18.1454 42.9486 18.0102 42.5602 18.1663 42.2372C18.3218 41.9143 18.7114 41.7797 19.0337 41.9346L21.7991 43.2697C22.1227 43.4258 22.2579 43.8142 22.1018 44.1372C21.9901 44.3693 21.7579 44.5044 21.5161 44.5044Z" fill="#FFE17D"/>
<path d="M24.0613 42.8477C23.9668 42.8477 23.8703 42.8267 23.7796 42.783L18.4727 40.2213C18.1497 40.0652 18.014 39.6768 18.1701 39.3538C18.3255 39.0315 18.7158 38.8963 19.0375 39.0512L24.3443 41.6129C24.6672 41.769 24.803 42.1574 24.6469 42.4803C24.5354 42.7124 24.3031 42.8477 24.0613 42.8477Z" fill="#FFF6D8"/>
<path d="M47.3865 27.0603L28.5848 17.9773L23.6285 20.3796L42.4724 29.4767L47.3865 27.0603Z" fill="#FF8087"/>
<path d="M42.4725 29.4768V36.5242C42.4725 36.7637 42.7229 36.9209 42.9387 36.8168L47.0193 34.8468C47.2439 34.7384 47.3866 34.5111 47.3866 34.2617V27.0604L42.4725 29.4768Z" fill="#E6646E"/>
</g>
<defs>
<filter id="filter0_f_1_2956" x="12" y="25" width="47" height="47" filterUnits="userSpaceOnUse" color-interpolation-filters="sRGB">
<feFlood flood-opacity="0" result="BackgroundImageFix"/>
<feBlend mode="normal" in="SourceGraphic" in2="BackgroundImageFix" result="shape"/>
<feGaussianBlur stdDeviation="5" result="effect1_foregroundBlur_1_2956"/>
</filter>
<clipPath id="clip0_1_2956">
<rect width="40" height="40" fill="white" transform="translate(14.9999 15)"/>
</clipPath>
</defs>
</svg>
