<svg width="25" height="19" viewBox="0 0 25 19" fill="none" xmlns="http://www.w3.org/2000/svg">
<path d="M12.5 0C10.3058 5.46491e-05 8.1502 0.566368 6.24995 1.64202C4.34971 2.71767 2.77174 4.26477 1.67465 6.1278C0.577551 7.99084 -1.39357e-05 10.1042 2.52189e-10 12.2554C1.39362e-05 14.4067 0.577606 16.52 1.67472 18.383C1.84049 18.6658 2.11404 18.8724 2.43521 18.9575C2.75637 19.0425 3.09884 18.999 3.38727 18.8365C3.6757 18.6739 3.88647 18.4057 3.9732 18.0909C4.05994 17.776 4.01554 17.4403 3.84978 17.1575C2.96406 15.6698 2.4981 13.9779 2.49975 12.2553C2.50034 10.7518 2.85363 9.2686 3.5323 7.92034C4.21097 6.57207 5.19683 5.3949 6.41366 4.47983C7.63048 3.56477 9.04566 2.93634 10.5498 2.64313C12.0539 2.34992 13.6066 2.39979 15.088 2.78888C16.5693 3.17797 17.9395 3.89586 19.0926 4.88704C20.2457 5.87822 21.1509 7.11613 21.7381 8.50505C22.3253 9.89397 22.5788 11.3967 22.4791 12.897C22.3793 14.3973 21.9289 15.8551 21.1627 17.1575C21.0801 17.2973 21.0265 17.4519 21.005 17.6121C20.9835 17.7724 20.9946 17.9353 21.0376 18.0913C21.0806 18.2474 21.1546 18.3936 21.2555 18.5215C21.3563 18.6493 21.482 18.7564 21.6252 18.8365C21.9123 18.9962 22.2521 19.0382 22.5706 18.9533C22.8891 18.8683 23.1604 18.6633 23.3253 18.383C24.4224 16.52 25 14.4067 25 12.2554C25 10.1042 24.4224 7.99084 23.3254 6.1278C22.2283 4.26477 20.6503 2.71767 18.75 1.64202C16.8498 0.566368 14.6942 5.46491e-05 12.5 0ZM16.0501 7.05908L14.1125 8.9464C13.611 8.70396 13.0592 8.57815 12.5 8.57874C11.7583 8.57874 11.0333 8.79437 10.4166 9.19836C9.79986 9.60235 9.3192 10.1766 9.03536 10.8484C8.75153 11.5202 8.67726 12.2594 8.82196 12.9726C8.96666 13.6858 9.32382 14.3409 9.84828 14.8551C10.3727 15.3693 11.0409 15.7194 11.7684 15.8613C12.4958 16.0032 13.2499 15.9304 13.9351 15.6521C14.6203 15.3738 15.206 14.9026 15.6181 14.2979C16.0302 13.6933 16.2501 12.9825 16.2501 12.2553C16.2492 11.7112 16.1209 11.1745 15.8751 10.6867L17.8126 8.79933C17.9298 8.6854 18.0228 8.54986 18.0863 8.40052C18.1497 8.25117 18.1824 8.09099 18.1824 7.9292C18.1824 7.76742 18.1497 7.60724 18.0863 7.45789C18.0228 7.30855 17.9298 7.17301 17.8126 7.05908C17.5784 6.83082 17.2616 6.7027 16.9314 6.7027C16.6011 6.7027 16.2843 6.83082 16.0501 7.05908ZM12.5 13.4809C12.1685 13.4809 11.8505 13.3518 11.6161 13.1219C11.3817 12.8921 11.25 12.5804 11.25 12.2553C11.25 11.9303 11.3817 11.6186 11.6161 11.3888C11.8505 11.1589 12.1685 11.0298 12.5 11.0298C12.8262 11.0279 13.1402 11.151 13.375 11.373C13.4946 11.4879 13.5895 11.6252 13.6539 11.7768C13.7183 11.9284 13.751 12.0911 13.75 12.2553C13.75 12.5804 13.6183 12.8921 13.3839 13.1219C13.1495 13.3518 12.8315 13.4809 12.5 13.4809Z" fill="white"/>
</svg>
