<svg width="142" height="142" viewBox="0 0 142 142" fill="none" xmlns="http://www.w3.org/2000/svg">
<g filter="url(#filter0_d_1_2932)">
<rect x="38.6667" y="34" width="64.1667" height="64.1667" rx="32.0833" fill="#FFF9F7"/>
<g clip-path="url(#clip0_1_2932)">
<path d="M77.3052 71.9341L78.0344 72.1052L80.4018 78.9068C80.4772 79.1234 80.3017 79.345 80.0735 79.321L76.7551 78.9736C76.6624 78.9639 76.5702 78.996 76.5036 79.0611L74.1181 81.3939C73.9542 81.5543 73.679 81.4896 73.6036 81.273L71.2207 74.4269L71.5655 73.9217L77.3052 71.9341Z" fill="#FF4755"/>
<path d="M71.2208 74.4269L70.7393 73.0436L77.5545 70.726L78.0345 72.1052C76.0993 73.4861 73.7561 74.3314 71.2208 74.4269Z" fill="#FC2B3A"/>
<path d="M64.1837 71.9341L63.4545 72.1052L61.0871 78.9068C61.0117 79.1234 61.1872 79.345 61.4154 79.321L64.7338 78.9736C64.8265 78.9639 64.9186 78.996 64.9852 79.0611L67.3707 81.3939C67.5347 81.5543 67.8099 81.4896 67.8852 81.273L70.2681 74.4269L69.9233 73.9217L64.1837 71.9341Z" fill="#FF4755"/>
<path d="M70.2685 74.4269L70.75 73.0436L63.9349 70.726L63.4548 72.1052C65.39 73.4861 67.7332 74.3314 70.2685 74.4269Z" fill="#FC2B3A"/>
<path d="M70.7483 72.2557C59.5821 72.2557 59.5728 61.4866 59.5821 61.3C59.8756 55.3871 64.7626 50.6833 70.7483 50.6833C76.7339 50.6833 81.621 55.3871 81.9145 61.3C81.9237 61.4866 81.9284 72.2557 70.7483 72.2557Z" fill="#FFCB5B"/>
<path d="M70.7499 71.9165C64.7642 71.9165 59.8773 67.2127 59.5838 61.2999C59.5745 61.4866 59.5697 61.6744 59.5697 61.8634C59.5697 68.038 64.5753 73.0435 70.7499 73.0435C76.9245 73.0435 81.93 68.038 81.93 61.8634C81.93 61.6744 81.9252 61.4866 81.916 61.2999C81.6224 67.2127 76.7355 71.9165 70.7499 71.9165Z" fill="#F7B737"/>
<path d="M70.7498 69.935C61.9599 69.935 61.9481 61.4862 61.9599 61.2999C62.2505 56.6982 66.0748 53.0558 70.7498 53.0558C75.4248 53.0558 79.2491 56.6982 79.5396 61.2999C79.5514 61.4862 79.5574 69.935 70.7498 69.935Z" fill="#FF9838"/>
<path d="M70.7497 69.5439C66.0747 69.5439 62.2511 65.9015 61.9605 61.2999C61.9487 61.4863 61.9421 61.6741 61.9421 61.8634C61.9421 66.7277 65.8854 70.671 70.7497 70.671C75.614 70.671 79.5573 66.7277 79.5573 61.8634C79.5573 61.674 79.5506 61.4863 79.5388 61.2999C79.2482 65.9015 75.4246 69.5439 70.7497 69.5439Z" fill="#FF8709"/>
<path d="M71.556 57.5731L72.3774 59.2375C72.5084 59.5028 72.7616 59.6868 73.0544 59.7293L74.8912 59.9962C75.6287 60.1034 75.9231 61.0097 75.3895 61.5299L74.0604 62.8254C73.8485 63.032 73.7518 63.3296 73.8018 63.6213L74.1156 65.4507C74.1453 65.6242 74.068 65.9323 74.068 65.9323H72.811L70.7497 64.7734L68.6885 65.9323L67.4418 65.9574C67.4418 65.9574 67.3523 65.6343 67.3838 65.4506L67.6976 63.6213C67.7477 63.3296 67.6509 63.032 67.439 62.8254L66.1099 61.5299C65.5763 61.0097 65.8707 60.1034 66.6083 59.9962L68.445 59.7293C68.7378 59.6867 68.991 59.5028 69.122 59.2374L69.9434 57.573C70.2732 56.9048 71.2262 56.9048 71.556 57.5731Z" fill="#FFF5F5"/>
<path d="M70.604 64.2645L67.4319 65.9322C67.6164 66.399 68.1846 66.6634 68.6884 66.3986L70.3313 65.5349C70.5932 65.3972 70.9061 65.3972 71.1681 65.5349L72.811 66.3986C73.3148 66.6634 73.8831 66.399 74.0675 65.9322L70.8954 64.2645C70.8041 64.2165 70.6952 64.2165 70.604 64.2645Z" fill="#EFE2DD"/>
</g>
</g>
<defs>
<filter id="filter0_d_1_2932" x="0.166668" y="0.63333" width="141.167" height="141.167" filterUnits="userSpaceOnUse" color-interpolation-filters="sRGB">
<feFlood flood-opacity="0" result="BackgroundImageFix"/>
<feColorMatrix in="SourceAlpha" type="matrix" values="0 0 0 0 0 0 0 0 0 0 0 0 0 0 0 0 0 0 127 0" result="hardAlpha"/>
<feOffset dy="5.13333"/>
<feGaussianBlur stdDeviation="19.25"/>
<feComposite in2="hardAlpha" operator="out"/>
<feColorMatrix type="matrix" values="0 0 0 0 0.0235294 0 0 0 0 0.0235294 0 0 0 0 0.25098 0 0 0 0.1 0"/>
<feBlend mode="normal" in2="BackgroundImageFix" result="effect1_dropShadow_1_2932"/>
<feBlend mode="normal" in="SourceGraphic" in2="effect1_dropShadow_1_2932" result="shape"/>
</filter>
<clipPath id="clip0_1_2932">
<rect width="30.8" height="30.8" fill="white" transform="translate(55.35 50.6833)"/>
</clipPath>
</defs>
</svg>
