<svg width="60" height="60" viewBox="0 0 60 60" fill="none" xmlns="http://www.w3.org/2000/svg">
<g clip-path="url(#clip0_1_2886)">
<rect width="60" height="60" rx="12" fill="#ECF9FF" fill-opacity="0.8"/>
<g filter="url(#filter0_f_1_2886)">
<rect x="16" y="25" width="27" height="27" rx="10" fill="#00AA63" fill-opacity="0.25"/>
</g>
<g clip-path="url(#clip1_1_2886)">
<path d="M41.483 35.0338C40.6767 37.2192 39.4572 39.1194 37.858 40.681C36.0377 42.4585 33.6541 43.871 30.7734 44.8785C30.6789 44.9115 30.5802 44.9385 30.4811 44.9584C30.3502 44.9842 30.217 44.9982 30.0849 45H30.0591C29.9183 45 29.7768 44.9859 29.6365 44.9584C29.5374 44.9385 29.4402 44.9115 29.3461 44.8792C26.4619 43.8733 24.0754 42.4615 22.2533 40.684C20.6534 39.1224 19.4341 37.2233 18.6289 35.038C17.1648 31.0646 17.2481 26.6874 17.3151 23.17L17.3163 23.1159C17.3298 22.8255 17.3385 22.5204 17.3433 22.1835C17.3678 20.5293 18.6829 19.1609 20.3373 19.0686C23.7865 18.8761 26.4548 17.7512 28.7347 15.529L28.7547 15.5107C29.1332 15.1634 29.6102 14.9931 30.0849 15.0002C30.5427 15.0062 30.9986 15.1763 31.3637 15.5107L31.3831 15.529C33.6635 17.7512 36.3318 18.8761 39.781 19.0686C41.4354 19.1609 42.7506 20.5293 42.7751 22.1835C42.7799 22.5227 42.7886 22.8273 42.8021 23.1159L42.8027 23.1388C42.8696 26.6629 42.9524 31.0488 41.483 35.0338Z" fill="#00DD80"/>
<path d="M41.4829 35.0338C40.6765 37.2192 39.457 39.1194 37.8578 40.681C36.0375 42.4585 33.654 43.871 30.7733 44.8785C30.6787 44.9115 30.5801 44.9385 30.481 44.9584C30.3501 44.9842 30.2168 44.9982 30.0848 45V15.0002C30.5425 15.0062 30.9985 15.1763 31.3635 15.5107L31.383 15.529C33.6634 17.7512 36.3317 18.8761 39.7809 19.0686C41.4353 19.1609 42.7504 20.5293 42.7749 22.1835C42.7797 22.5227 42.7884 22.8273 42.8019 23.1159L42.8026 23.1388C42.8695 26.6629 42.9523 31.0488 41.4829 35.0338Z" fill="#00AA63"/>
<path d="M37.5351 30C37.5351 34.1137 34.195 37.4623 30.0848 37.4769H30.0584C25.936 37.4769 22.5815 34.1227 22.5815 30C22.5815 25.8776 25.936 22.5234 30.0584 22.5234H30.0848C34.195 22.538 37.5351 25.8866 37.5351 30Z" fill="white"/>
<path d="M37.5351 30C37.5351 34.1137 34.1951 37.4623 30.0848 37.4769V22.5234C34.1951 22.538 37.5351 25.8866 37.5351 30Z" fill="#E1EBF0"/>
<path d="M33.4521 28.9234L30.0848 32.2911L29.3571 33.0187C29.1852 33.1906 28.9598 33.2765 28.7346 33.2765C28.5091 33.2765 28.2839 33.1906 28.1118 33.0187L26.5474 31.4536C26.2036 31.1099 26.2036 30.553 26.5474 30.209C26.8907 29.8652 27.4483 29.8652 27.792 30.209L28.7346 31.1515L32.2074 27.6787C32.5512 27.3347 33.1087 27.3347 33.4521 27.6787C33.7958 28.0225 33.7958 28.58 33.4521 28.9234Z" fill="#B4D2D7"/>
<path d="M33.4521 28.9234L30.0848 32.2911V29.8011L32.2074 27.6787C32.5512 27.3347 33.1087 27.3347 33.4521 27.6787C33.7958 28.0225 33.7958 28.58 33.4521 28.9234Z" fill="#6FA5AA"/>
</g>
</g>
<defs>
<filter id="filter0_f_1_2886" x="6" y="15" width="47" height="47" filterUnits="userSpaceOnUse" color-interpolation-filters="sRGB">
<feFlood flood-opacity="0" result="BackgroundImageFix"/>
<feBlend mode="normal" in="SourceGraphic" in2="BackgroundImageFix" result="shape"/>
<feGaussianBlur stdDeviation="5" result="effect1_foregroundBlur_1_2886"/>
</filter>
<clipPath id="clip0_1_2886">
<rect width="60" height="60" rx="12" fill="white"/>
</clipPath>
<clipPath id="clip1_1_2886">
<rect width="30" height="30" fill="white" transform="translate(15 15)"/>
</clipPath>
</defs>
</svg>
