<svg width="60" height="60" viewBox="0 0 60 60" fill="none" xmlns="http://www.w3.org/2000/svg">
<g clip-path="url(#clip0_1_2899)">
<rect width="60" height="60" rx="12" fill="#ECF9FF" fill-opacity="0.8"/>
<g filter="url(#filter0_f_1_2899)">
<rect x="16" y="25" width="27" height="27" rx="10" fill="#7D89FF" fill-opacity="0.2"/>
</g>
<g clip-path="url(#clip1_1_2899)">
<path d="M21.2 39.6774C18.7814 39.6774 16.8132 41.7039 16.8132 44.1227V45H23.8321L25.4982 43.1868C25.0905 41.1868 23.3185 39.6774 21.2 39.6774Z" fill="#FF5E70"/>
<path d="M21.1999 39.6773C19.2645 39.6773 17.6905 38.1033 17.6905 36.1679C17.6905 34.2322 19.2645 32.6584 21.1999 32.6584C23.1356 32.6584 24.7094 34.2322 24.7094 36.1679C24.7094 38.1033 23.1356 39.6773 21.1999 39.6773Z" fill="#FF5E70"/>
<path d="M38.7472 39.6774C36.6289 39.6774 34.8569 41.1868 34.4492 43.1868L36.1152 45H43.1341V44.1227C43.1341 41.7039 41.166 39.6774 38.7472 39.6774Z" fill="#FF3651"/>
<path d="M38.7472 39.6773C36.8118 39.6773 35.2377 38.1033 35.2377 36.1679C35.2377 34.2322 36.8118 32.6584 38.7472 32.6584C40.6828 32.6584 42.2566 34.2322 42.2566 36.1679C42.2566 38.1033 40.6828 39.6773 38.7472 39.6773Z" fill="#FF3651"/>
<path d="M35.308 18.9365L31.6232 18.3925L29.9737 15L28.3241 18.3925L24.6393 18.9365L27.3065 21.5334L26.6748 25.1834L29.9737 23.4638L33.2725 25.1834L32.6408 21.5334L35.308 18.9365Z" fill="#FDBF00"/>
<path d="M42.7425 31.1572L39.4489 29.4266L36.1571 31.1572L36.7861 27.491L34.123 24.895L37.803 24.3603L39.4491 21.0248L41.095 24.3603L44.9473 24.895L42.1119 27.491L42.7425 31.1572Z" fill="#FF9100"/>
<path d="M23.7902 31.1572L20.4984 29.4266L17.2048 31.1572L17.8354 27.491L15 24.895L18.8523 24.3603L20.4982 21.0248L22.1443 24.3603L25.8243 24.895L23.1612 27.491L23.7902 31.1572Z" fill="#FDBF00"/>
<path d="M29.9737 27.3942C27.5521 27.3942 25.5869 29.3596 25.5869 31.7811C25.5869 34.2025 27.5521 36.1679 29.9737 36.1679C32.3952 36.1679 34.3604 34.2025 34.3604 31.7811C34.3604 29.3596 32.3952 27.3942 29.9737 27.3942Z" fill="#7D89FF"/>
<path d="M29.9737 36.1679C26.5871 36.1679 23.8321 38.9227 23.8321 42.3095V45H36.1153V42.3095C36.1153 38.9227 33.3602 36.1679 29.9737 36.1679Z" fill="#7D89FF"/>
<path d="M29.9737 36.1679V27.3942C32.3953 27.3942 34.3604 29.3596 34.3604 31.7811C34.3604 34.2025 32.3953 36.1679 29.9737 36.1679Z" fill="#6B78F7"/>
<path d="M33.2726 25.1834L29.9737 23.4636V15L31.6232 18.3925L35.308 18.9365L32.6409 21.5334L33.2726 25.1834Z" fill="#FF9100"/>
<path d="M36.1153 42.3095V45H29.9737V36.1679C33.3602 36.1679 36.1153 38.9227 36.1153 42.3095Z" fill="#6B78F7"/>
</g>
</g>
<defs>
<filter id="filter0_f_1_2899" x="6" y="15" width="47" height="47" filterUnits="userSpaceOnUse" color-interpolation-filters="sRGB">
<feFlood flood-opacity="0" result="BackgroundImageFix"/>
<feBlend mode="normal" in="SourceGraphic" in2="BackgroundImageFix" result="shape"/>
<feGaussianBlur stdDeviation="5" result="effect1_foregroundBlur_1_2899"/>
</filter>
<clipPath id="clip0_1_2899">
<rect width="60" height="60" rx="12" fill="white"/>
</clipPath>
<clipPath id="clip1_1_2899">
<rect width="30" height="30" fill="white" transform="translate(15 15)"/>
</clipPath>
</defs>
</svg>
