<svg width="60" height="60" viewBox="0 0 60 60" fill="none" xmlns="http://www.w3.org/2000/svg">
<rect width="60" height="60" rx="12.8" fill="#00E5CC"/>
<g clip-path="url(#clip0_1_2712)">
<path d="M46.8174 16.8087C46.6673 16.7009 46.4719 16.6793 46.3018 16.7514L17.2837 28.4618L13.8462 29.8883L24.2331 34.0935H24.2446V34.0992L27.0232 43.7986C27.0792 43.9939 27.2344 44.1449 27.4311 44.1956C27.6278 44.2462 27.8367 44.1889 27.98 44.045L33.7664 38.1268L41.5752 41.1976C41.8971 41.3292 42.2615 41.3054 42.5636 41.1332C42.8655 40.9609 43.0715 40.6593 43.1221 40.3153L47.0638 17.4045C47.1145 17.1739 47.0162 16.9361 46.8174 16.8087ZM29.9908 36.5914L30.0023 36.5513L30.0195 36.557L29.9908 36.5914Z" fill="white"/>
<path d="M33.7665 38.1268L27.9801 44.045C28.0475 43.9716 28.0966 43.8832 28.1233 43.7872L29.991 36.5914L30.0196 36.557L32.5061 37.5997L33.6176 38.0695L33.7665 38.1268Z" fill="white"/>
<path d="M46.8596 16.8395L30.0194 36.5569L30.0022 36.5512L29.9907 36.5913L28.123 43.787C28.0963 43.8831 28.0472 43.9714 27.9797 44.0448C27.8364 44.1888 27.6276 44.2461 27.4309 44.1955C27.2342 44.1448 27.079 43.9937 27.023 43.7985L24.2443 34.099V34.0933H24.2386V34.0876L46.8596 16.8395Z" fill="#E2FFFC"/>
</g>
<defs>
<clipPath id="clip0_1_2712">
<rect width="33.2308" height="33.2308" fill="white" transform="translate(13.8462 13.8462)"/>
</clipPath>
</defs>
</svg>
