<svg width="450" height="415" viewBox="0 0 450 415" fill="none" xmlns="http://www.w3.org/2000/svg">
<path d="M192.183 329.031C221.034 336.762 251.529 335.768 279.816 326.174C308.102 316.58 332.909 298.816 351.103 275.127C369.297 251.439 380.06 222.889 382.033 193.085C384.006 163.281 377.1 133.561 362.188 107.681C359.688 103.34 359.014 98.1839 360.316 93.3466C361.618 88.5092 364.788 84.387 369.129 81.8869C373.47 79.3868 378.626 78.7135 383.463 80.0152C388.301 81.3169 392.423 84.4868 394.923 88.8278C407.314 110.281 415.351 133.969 418.571 158.534C421.792 183.099 420.134 208.058 413.692 231.98C386.697 332.724 283.152 392.506 182.408 365.512C81.664 338.518 21.8818 234.972 48.8761 134.228C55.2584 110.29 66.3018 87.8454 81.3734 68.1821C96.4449 48.5187 115.248 32.0225 136.707 19.6389C141.042 17.1296 146.197 16.4454 151.037 17.7368C155.877 19.0282 160.006 22.1894 162.515 26.5251C165.025 30.8607 165.709 36.0156 164.418 40.8557C163.126 45.6958 159.965 49.8247 155.629 52.334C129.775 67.2907 108.934 89.5758 95.7408 116.373C82.5475 143.17 77.5939 173.277 81.5058 202.889C85.4177 232.501 98.0197 260.288 117.719 282.74C137.419 305.192 163.331 321.301 192.183 329.031Z" fill="url(#paint0_linear_1_2786)" fill-opacity="0.5"/>
<path d="M221.507 219.588C231.183 222.18 241.492 220.823 250.167 215.815C258.842 210.806 265.171 202.557 267.764 192.881C270.357 183.206 268.999 172.897 263.991 164.222C258.983 155.547 250.733 149.217 241.058 146.625C231.382 144.032 221.073 145.389 212.398 150.398C203.723 155.406 197.393 163.655 194.801 173.331C192.208 183.006 193.566 193.316 198.574 201.99C203.582 210.665 211.832 216.995 221.507 219.588Z" fill="url(#paint1_linear_1_2786)" fill-opacity="0.5"/>
<path d="M304.247 202.659C301.034 214.66 294.911 225.683 286.42 234.751C277.929 243.82 267.333 250.655 255.569 254.649C243.806 258.644 231.239 259.676 218.981 257.653C206.724 255.63 195.154 250.616 185.298 243.053C175.442 235.491 167.603 225.614 162.476 214.298C157.349 202.982 155.092 190.576 155.905 178.179C156.718 165.783 160.577 153.778 167.138 143.229C173.699 132.68 182.762 123.912 193.521 117.702C195.67 116.461 197.554 114.809 199.064 112.841C200.575 110.872 201.683 108.625 202.325 106.229C202.967 103.832 203.131 101.332 202.807 98.872C202.483 96.4119 201.678 94.0397 200.437 91.8908C197.932 87.551 193.805 84.3843 188.964 83.0873C186.568 82.4451 184.068 82.2812 181.608 82.6051C179.148 82.929 176.775 83.7342 174.627 84.9749C155.219 96.1792 139.569 112.887 129.657 132.986C119.745 153.085 116.015 175.671 118.94 197.89C121.864 220.108 131.312 240.96 146.088 257.809C160.864 274.658 180.304 286.747 201.95 292.547C223.597 298.347 246.477 297.598 267.698 290.394C288.918 283.191 307.526 269.856 321.168 252.077C334.811 234.297 342.874 212.872 344.339 190.51C345.804 168.148 340.605 145.853 329.4 126.446C328.159 124.299 326.507 122.416 324.538 120.907C322.57 119.398 320.324 118.291 317.927 117.65C315.531 117.009 313.032 116.846 310.573 117.17C308.114 117.495 305.743 118.301 303.596 119.542C301.448 120.783 299.566 122.435 298.056 124.403C296.547 126.371 295.44 128.618 294.799 131.014C294.158 133.41 293.995 135.909 294.32 138.368C294.644 140.827 295.45 143.198 296.691 145.346C301.667 153.929 304.897 163.411 306.194 173.248C307.49 183.084 306.829 193.079 304.247 202.659Z" fill="url(#paint2_linear_1_2786)" fill-opacity="0.5"/>
<defs>
<linearGradient id="paint0_linear_1_2786" x1="182.408" y1="365.512" x2="267.25" y2="48.876" gradientUnits="userSpaceOnUse">
<stop stop-color="white"/>
<stop offset="1" stop-color="white" stop-opacity="0"/>
</linearGradient>
<linearGradient id="paint1_linear_1_2786" x1="221.507" y1="219.588" x2="241.058" y2="146.625" gradientUnits="userSpaceOnUse">
<stop stop-color="white"/>
<stop offset="1" stop-color="white" stop-opacity="0"/>
</linearGradient>
<linearGradient id="paint2_linear_1_2786" x1="201.95" y1="292.547" x2="253.445" y2="100.365" gradientUnits="userSpaceOnUse">
<stop stop-color="white"/>
<stop offset="1" stop-color="white" stop-opacity="0"/>
</linearGradient>
</defs>
</svg>
