<svg width="14" height="14" viewBox="0 0 14 14" fill="none" xmlns="http://www.w3.org/2000/svg">
<path d="M6.70834 12.6876C3.41251 12.6876 0.729176 10.0042 0.729176 6.70842C0.729176 3.41258 3.41251 0.729248 6.70834 0.729248C10.0042 0.729248 12.6875 3.41258 12.6875 6.70842C12.6875 10.0042 10.0042 12.6876 6.70834 12.6876ZM6.70834 1.60425C3.89084 1.60425 1.60418 3.89675 1.60418 6.70842C1.60418 9.52008 3.89084 11.8126 6.70834 11.8126C9.52584 11.8126 11.8125 9.52008 11.8125 6.70842C11.8125 3.89675 9.52584 1.60425 6.70834 1.60425Z" fill="#00E5CC"/>
<path d="M12.8334 13.2709C12.7225 13.2709 12.6117 13.2301 12.5242 13.1426L11.3575 11.9759C11.1884 11.8068 11.1884 11.5268 11.3575 11.3576C11.5267 11.1884 11.8067 11.1884 11.9759 11.3576L13.1425 12.5243C13.3117 12.6934 13.3117 12.9734 13.1425 13.1426C13.055 13.2301 12.9442 13.2709 12.8334 13.2709Z" fill="#00E5CC"/>
</svg>
