<svg width="667" height="642" viewBox="0 0 667 642" fill="none" xmlns="http://www.w3.org/2000/svg">
<path d="M419.211 468.885C454.272 448.644 482.546 418.465 500.461 382.16C518.375 345.855 525.126 305.055 519.859 264.914C514.593 224.774 497.546 187.096 470.873 156.641C444.2 126.186 409.098 104.321 370.002 93.8096C363.445 92.0454 357.858 87.7488 354.47 81.8652C351.081 75.9815 350.169 68.9927 351.933 62.4362C353.697 55.8797 357.994 50.2926 363.877 46.9039C369.761 43.5153 376.75 42.6027 383.306 44.367C415.743 53.0522 446.148 68.0527 472.778 88.509C499.407 108.965 521.739 134.475 538.492 163.577C609.174 286.002 567.231 442.536 444.806 513.218C322.382 583.9 165.848 541.956 95.1658 419.532C78.3396 390.472 67.413 358.377 63.0122 325.087C58.6114 291.797 60.8229 257.966 69.5198 225.532C71.2702 218.971 75.5548 213.375 81.4313 209.974C87.3078 206.573 94.2947 205.646 100.855 207.396C107.415 209.146 113.011 213.431 116.412 219.308C119.814 225.184 120.741 232.171 118.99 238.731C108.546 277.845 109.93 319.177 122.968 357.504C136.007 395.831 160.114 429.433 192.243 454.064C224.372 478.695 263.082 493.249 303.48 495.887C343.878 498.525 384.151 489.128 419.211 468.885Z" fill="url(#paint0_linear_1_3011)" fill-opacity="0.5"/>
<path d="M342.425 335.89C354.182 329.102 362.762 317.921 366.276 304.807C369.79 291.693 367.95 277.72 361.162 265.962C354.374 254.204 343.193 245.625 330.078 242.111C316.964 238.597 302.992 240.437 291.234 247.225C279.476 254.013 270.897 265.194 267.383 278.308C263.869 291.422 265.708 305.395 272.497 317.153C279.285 328.911 290.466 337.49 303.58 341.004C316.694 344.518 330.667 342.678 342.425 335.89Z" fill="url(#paint1_linear_1_3011)" fill-opacity="0.5"/>
<path d="M405.498 240.368C413.921 254.948 418.617 271.381 419.171 288.21C419.724 305.04 416.119 321.746 408.673 336.848C401.228 351.951 390.172 364.984 376.486 374.794C362.799 384.603 346.905 390.885 330.211 393.083C313.517 395.281 296.538 393.328 280.779 387.397C265.02 381.465 250.967 371.738 239.865 359.078C228.764 346.417 220.956 331.214 217.134 314.815C213.312 298.416 213.594 281.328 217.955 265.064C218.825 261.816 219.047 258.427 218.608 255.093C218.169 251.759 217.078 248.543 215.396 245.631C213.715 242.718 211.476 240.166 208.808 238.118C206.14 236.071 203.095 234.569 199.846 233.699C193.285 231.941 186.295 232.861 180.413 236.257C177.5 237.939 174.948 240.177 172.9 242.846C170.853 245.514 169.351 248.559 168.481 251.808C160.618 281.147 161.633 312.158 171.395 340.921C181.158 369.683 199.231 394.905 223.328 413.396C247.425 431.887 276.465 442.817 306.774 444.804C337.083 446.791 367.301 439.745 393.606 424.558C419.911 409.371 441.121 386.724 454.555 359.482C467.989 332.24 473.043 301.627 469.078 271.512C465.113 241.398 452.307 213.136 432.279 190.3C412.251 167.463 385.902 151.079 356.562 143.219C353.314 142.35 349.927 142.129 346.594 142.569C343.261 143.009 340.048 144.101 337.137 145.783C334.226 147.465 331.675 149.704 329.629 152.372C327.583 155.04 326.083 158.085 325.214 161.332C324.345 164.58 324.124 167.967 324.564 171.3C325.004 174.633 326.096 177.847 327.778 180.758C329.46 183.669 331.699 186.22 334.367 188.265C337.035 190.311 340.08 191.811 343.328 192.68C356.323 196.137 368.506 202.13 379.176 210.314C389.846 218.498 398.792 228.712 405.498 240.368Z" fill="url(#paint2_linear_1_3011)" fill-opacity="0.5"/>
<defs>
<linearGradient id="paint0_linear_1_3011" x1="444.806" y1="513.218" x2="222.654" y2="128.439" gradientUnits="userSpaceOnUse">
<stop stop-color="white"/>
<stop offset="1" stop-color="white" stop-opacity="0"/>
</linearGradient>
<linearGradient id="paint1_linear_1_3011" x1="342.425" y1="335.89" x2="291.234" y2="247.225" gradientUnits="userSpaceOnUse">
<stop stop-color="white"/>
<stop offset="1" stop-color="white" stop-opacity="0"/>
</linearGradient>
<linearGradient id="paint2_linear_1_3011" x1="393.606" y1="424.558" x2="258.771" y2="191.017" gradientUnits="userSpaceOnUse">
<stop stop-color="white"/>
<stop offset="1" stop-color="white" stop-opacity="0"/>
</linearGradient>
</defs>
</svg>
