<svg width="136" height="153" viewBox="0 0 136 153" fill="none" xmlns="http://www.w3.org/2000/svg">
<path d="M84.0522 135.716C85.6489 139.054 88.9293 146.776 89.2776 150.956" stroke="#060640" stroke-width="2" stroke-linecap="round" stroke-linejoin="round"/>
<path d="M92.7612 123.523C103.938 128.748 127.249 141.638 131.081 151.392" stroke="#060640" stroke-width="2" stroke-linecap="round" stroke-linejoin="round"/>
<path d="M2.6232 2.46784C10.8968 5.08054 27.4439 14.7475 27.4439 32.5139M27.4439 32.5139C19.6058 34.546 6.28098 40.7004 15.6867 49.061C18.5897 50.6576 25.0053 49.5835 27.4439 32.5139ZM27.4439 32.5139C43.8458 26.7079 76.9981 24.5887 78.3915 62.5599C77.5206 77.8007 73.6016 111.679 64.8926 125.265C75.1982 110.169 103.648 78.7587 135 73.8816M3.39554 12.5527L1 1L12.7952 1.27539" stroke="#060640" stroke-width="2" stroke-linecap="round" stroke-linejoin="round"/>
<path d="M29.621 2.90332C32.9595 4.20967 39.2009 8.91253 37.4591 17.2732" stroke="#060640" stroke-width="2" stroke-linecap="round" stroke-linejoin="round"/>
</svg>
