<svg width="679" height="668" viewBox="0 0 679 668" fill="none" xmlns="http://www.w3.org/2000/svg">
<path d="M447.486 201.101C416.057 175.583 377.769 159.954 337.46 156.19C297.151 152.425 256.631 160.694 221.02 179.951C185.409 199.208 156.306 228.589 137.388 264.381C118.47 300.173 110.586 340.77 114.733 381.041C115.427 387.795 113.409 394.548 109.124 399.815C104.839 405.082 98.6374 408.43 91.8832 409.124C85.1291 409.818 78.3758 407.801 73.1091 403.516C67.8424 399.231 64.4936 393.029 63.7995 386.275C60.3252 352.875 63.4756 319.119 73.0702 286.939C82.6648 254.759 98.515 224.789 119.713 198.745C208.813 88.9962 370.002 72.2583 479.751 161.359C589.5 250.459 606.238 411.648 517.138 521.397C496.005 547.494 469.931 569.164 440.409 585.165C410.887 601.167 378.498 611.186 345.097 614.648C338.344 615.357 331.587 613.354 326.311 609.08C321.035 604.806 317.673 598.611 316.965 591.858C316.256 585.106 318.259 578.348 322.533 573.073C326.807 567.797 333.002 564.435 339.755 563.726C380.019 559.511 418.129 543.454 449.271 517.585C480.412 491.717 503.186 457.197 514.716 418.39C526.245 379.582 526.012 338.228 514.046 299.552C502.079 260.877 478.917 226.617 447.486 201.101Z" fill="url(#paint0_linear_1_3007)" fill-opacity="0.5"/>
<path d="M350.693 320.327C340.153 311.77 326.645 307.751 313.141 309.153C299.637 310.555 287.243 317.264 278.685 327.805C270.128 338.345 266.109 351.853 267.511 365.357C268.913 378.861 275.622 391.255 286.163 399.812C296.703 408.37 310.211 412.389 323.715 410.987C337.219 409.585 349.613 402.876 358.17 392.335C366.728 381.795 370.747 368.287 369.345 354.783C367.943 341.279 361.233 328.885 350.693 320.327Z" fill="url(#paint1_linear_1_3007)" fill-opacity="0.5"/>
<path d="M238.942 295.536C249.553 282.461 263.224 272.205 278.745 265.676C294.266 259.147 311.158 256.548 327.924 258.107C344.69 259.667 360.813 265.338 374.863 274.617C388.914 283.897 400.459 296.499 408.476 311.306C416.492 326.114 420.733 342.67 420.822 359.508C420.91 376.347 416.845 392.947 408.985 407.838C401.126 422.73 389.714 435.453 375.762 444.88C361.81 454.308 345.749 460.148 329 461.885C325.655 462.232 322.411 463.235 319.454 464.836C316.496 466.437 313.883 468.605 311.763 471.216C309.643 473.827 308.059 476.83 307.099 480.053C306.14 483.277 305.825 486.658 306.173 490.003C306.874 496.759 310.231 502.959 315.504 507.24C318.115 509.36 321.118 510.944 324.341 511.904C327.564 512.863 330.945 513.178 334.29 512.83C364.502 509.694 393.106 497.669 416.483 478.277C439.861 458.884 456.963 432.994 465.627 403.882C474.291 374.77 474.127 343.742 465.156 314.722C456.185 285.703 438.811 259.996 415.229 240.851C391.648 221.706 362.919 209.984 332.676 207.167C302.432 204.351 272.033 210.565 245.322 225.026C218.61 239.486 196.787 261.543 182.611 288.406C168.436 315.27 162.545 345.733 165.683 375.945C166.031 379.289 167.035 382.531 168.636 385.487C170.238 388.443 172.406 391.055 175.017 393.173C177.628 395.291 180.63 396.874 183.853 397.832C187.075 398.79 190.455 399.103 193.799 398.755C197.143 398.406 200.385 397.403 203.341 395.801C206.297 394.2 208.909 392.032 211.027 389.421C213.145 386.81 214.728 383.808 215.685 380.585C216.643 377.362 216.957 373.983 216.608 370.639C215.195 357.266 216.441 343.746 220.274 330.856C224.107 317.967 230.451 305.963 238.942 295.536Z" fill="url(#paint2_linear_1_3007)" fill-opacity="0.5"/>
<defs>
<linearGradient id="paint0_linear_1_3007" x1="479.751" y1="161.359" x2="199.71" y2="506.298" gradientUnits="userSpaceOnUse">
<stop stop-color="white"/>
<stop offset="1" stop-color="white" stop-opacity="0"/>
</linearGradient>
<linearGradient id="paint1_linear_1_3007" x1="350.693" y1="320.327" x2="286.163" y2="399.812" gradientUnits="userSpaceOnUse">
<stop stop-color="white"/>
<stop offset="1" stop-color="white" stop-opacity="0"/>
</linearGradient>
<linearGradient id="paint2_linear_1_3007" x1="415.229" y1="240.851" x2="245.259" y2="450.211" gradientUnits="userSpaceOnUse">
<stop stop-color="white"/>
<stop offset="1" stop-color="white" stop-opacity="0"/>
</linearGradient>
</defs>
</svg>
