<svg width="480" height="455" viewBox="0 0 480 455" fill="none" xmlns="http://www.w3.org/2000/svg">
<path d="M292.081 112.65C264.899 100.268 234.657 96.2206 205.176 101.02C175.696 105.82 148.299 119.251 126.449 139.616C104.599 159.981 89.2758 186.366 82.4164 215.437C75.5569 244.507 77.4688 274.959 87.9104 302.944C89.6607 307.637 89.4747 312.834 87.3933 317.391C85.312 321.947 81.5058 325.49 76.8121 327.241C72.1184 328.991 66.9216 328.805 62.365 326.723C57.8084 324.642 54.2653 320.836 52.5151 316.142C43.8301 292.939 39.809 268.251 40.6821 243.491C41.5553 218.731 47.3056 194.388 57.6035 171.854C100.837 76.9391 212.822 35.0456 307.737 78.2792C402.652 121.513 444.545 233.497 401.312 328.412C391.07 350.972 376.478 371.288 358.371 388.198C340.263 405.107 318.998 418.278 295.792 426.954C291.102 428.714 285.905 428.539 281.344 426.468C276.783 424.396 273.231 420.597 271.471 415.907C269.711 411.217 269.886 406.02 271.958 401.459C274.029 396.898 277.828 393.347 282.518 391.587C310.485 381.097 334.714 362.553 352.145 338.297C369.575 314.042 379.424 285.163 380.448 255.312C381.471 225.46 373.623 195.975 357.894 170.583C342.166 145.191 319.263 125.03 292.081 112.65Z" fill="url(#paint0_linear_1_2782)" fill-opacity="0.5"/>
<path d="M245.115 215.761C235.999 211.609 225.608 211.248 216.226 214.758C206.844 218.267 199.241 225.36 195.088 234.476C190.936 243.592 190.575 253.983 194.085 263.365C197.595 272.747 204.688 280.35 213.803 284.503C222.919 288.655 233.311 289.016 242.693 285.506C252.075 281.996 259.678 274.903 263.83 265.788C267.982 256.672 268.343 246.28 264.833 236.898C261.324 227.516 254.231 219.913 245.115 215.761Z" fill="url(#paint1_linear_1_2782)" fill-opacity="0.5"/>
<path d="M160.716 218.817C165.864 207.511 173.72 197.648 183.59 190.103C193.46 182.558 205.038 177.564 217.299 175.564C229.561 173.563 242.126 174.617 253.882 178.633C265.639 182.649 276.223 189.502 284.698 198.586C293.172 207.67 299.276 218.704 302.467 230.711C305.658 242.717 305.839 255.325 302.993 267.418C300.147 279.511 294.363 290.715 286.152 300.038C277.941 309.362 267.557 316.516 255.921 320.867C253.597 321.736 251.467 323.055 249.653 324.747C247.838 326.44 246.375 328.473 245.346 330.731C244.318 332.99 243.744 335.428 243.658 337.908C243.572 340.388 243.975 342.86 244.844 345.184C246.6 349.878 250.149 353.681 254.709 355.759C256.967 356.787 259.406 357.361 261.886 357.447C264.365 357.533 266.838 357.13 269.162 356.261C290.151 348.409 308.341 334.51 321.431 316.32C334.522 298.131 341.924 276.468 342.702 254.072C343.48 231.675 337.6 209.551 325.804 190.497C314.008 171.442 296.826 156.314 276.432 147.024C256.038 137.735 233.348 134.702 211.23 138.308C189.112 141.915 168.56 151.999 152.174 167.286C135.787 182.573 124.302 202.376 119.17 224.191C114.038 246.005 115.491 268.852 123.344 289.841C124.214 292.164 125.532 294.292 127.225 296.106C128.918 297.919 130.951 299.381 133.209 300.408C135.466 301.435 137.904 302.008 140.383 302.093C142.862 302.179 145.333 301.775 147.656 300.905C149.979 300.035 152.108 298.716 153.921 297.023C155.734 295.331 157.196 293.298 158.224 291.04C159.251 288.782 159.824 286.344 159.909 283.865C159.994 281.386 159.59 278.915 158.72 276.592C155.227 267.306 153.605 257.421 153.948 247.505C154.29 237.59 156.591 227.84 160.716 218.817Z" fill="url(#paint2_linear_1_2782)" fill-opacity="0.5"/>
<defs>
<linearGradient id="paint0_linear_1_2782" x1="307.737" y1="78.2792" x2="171.854" y2="376.596" gradientUnits="userSpaceOnUse">
<stop stop-color="white"/>
<stop offset="1" stop-color="white" stop-opacity="0"/>
</linearGradient>
<linearGradient id="paint1_linear_1_2782" x1="245.115" y1="215.761" x2="213.803" y2="284.503" gradientUnits="userSpaceOnUse">
<stop stop-color="white"/>
<stop offset="1" stop-color="white" stop-opacity="0"/>
</linearGradient>
<linearGradient id="paint2_linear_1_2782" x1="276.432" y1="147.024" x2="193.959" y2="328.087" gradientUnits="userSpaceOnUse">
<stop stop-color="white"/>
<stop offset="1" stop-color="white" stop-opacity="0"/>
</linearGradient>
</defs>
</svg>
