<svg width="24" height="24" viewBox="0 0 24 24" fill="none" xmlns="http://www.w3.org/2000/svg">
<g clip-path="url(#clip0_1_77)">
<path d="M17.4862 2.34663e-05C16.1249 0.0918984 14.668 0.901898 13.7662 1.99502C12.9768 2.9569 12.3149 4.36877 12.5662 5.83502C12.3412 5.76565 12.1368 5.75815 11.8912 5.67002C11.2218 5.4319 10.4568 5.17502 9.50616 5.17502C7.61803 5.17502 5.68491 6.29815 4.46616 8.17502C2.69241 10.9013 3.04866 15.6994 5.74116 19.8C6.21554 20.52 6.76866 21.3056 7.45116 21.93C8.13366 22.5544 8.95866 23.0306 9.92616 23.04C10.753 23.0494 11.3287 22.7738 11.8462 22.545C12.3637 22.3163 12.8455 22.1138 13.7512 22.11C13.7568 22.11 13.7605 22.11 13.7662 22.11C14.668 22.1025 15.1349 22.3013 15.6412 22.53C16.1474 22.7588 16.7174 23.0475 17.5462 23.04C18.5324 23.0325 19.3705 22.4925 20.0662 21.825C20.7618 21.1575 21.3337 20.3382 21.8062 19.62C22.483 18.5888 22.7549 18.0263 23.2762 16.875C23.3305 16.755 23.3324 16.6163 23.2799 16.4944C23.2293 16.3725 23.1299 16.2769 23.0062 16.23C21.2999 15.585 20.3268 14.0756 20.1862 12.48C20.0455 10.8844 20.7205 9.2419 22.4212 8.31002C22.5468 8.24252 22.6349 8.1244 22.6649 7.98565C22.693 7.8469 22.6593 7.70065 22.5712 7.59002C21.3505 6.07315 19.633 5.17502 17.9512 5.17502C16.8787 5.17502 16.0912 5.42815 15.4462 5.67002C15.3393 5.71127 15.2605 5.70752 15.1612 5.74502C15.8155 5.40002 16.393 4.9219 16.8262 4.36502C17.6137 3.3544 18.2212 1.91627 17.9962 0.405023C17.9587 0.157523 17.7355 -0.0187265 17.4862 2.34663e-05ZM16.9762 1.14002C16.9443 2.1094 16.6124 3.05815 16.0612 3.76502C15.4837 4.50752 14.5124 5.02127 13.5712 5.17502C13.588 4.24315 13.9555 3.27752 14.5162 2.59502C15.1049 1.88252 16.0799 1.36877 16.9762 1.14002ZM9.50616 6.13502C9.92616 6.13502 10.9012 6.33565 11.5612 6.57002C12.2212 6.8044 12.9168 7.08002 13.7362 7.08002C14.5368 7.08002 15.1705 6.80252 15.7912 6.57002C16.4118 6.33752 17.0305 6.13502 17.9512 6.13502C19.153 6.13502 20.4524 6.7594 21.4762 7.84502C19.8374 9.0019 19.0705 10.8056 19.2262 12.555C19.3818 14.3231 20.4468 16.0013 22.1962 16.875C22.1937 16.8805 22.1912 16.8859 22.1887 16.8914C21.8141 17.7073 21.5644 18.2513 21.0112 19.095C20.5518 19.7944 20.0062 20.5594 19.4062 21.135C18.8062 21.7106 18.1705 22.0744 17.5312 22.08C16.9143 22.0856 16.5637 21.9019 16.0312 21.66C15.4987 21.4181 14.8105 21.1406 13.7512 21.15C12.6937 21.1556 11.9962 21.4219 11.4562 21.66C10.9162 21.8981 10.5618 22.0856 9.94116 22.08C9.28491 22.0744 8.67554 21.7556 8.09616 21.225C7.51679 20.6944 6.99366 19.9706 6.53616 19.275C4.01616 15.435 3.81366 10.9238 5.26116 8.70002C6.32241 7.0669 9.08616 6.13502 9.50616 6.13502Z" fill="black"/>
<path d="M9.50616 6.13502C9.92616 6.13502 10.9012 6.33565 11.5612 6.57002C12.2212 6.8044 12.9168 7.08002 13.7362 7.08002C14.5368 7.08002 15.1705 6.80252 15.7912 6.57002C16.4118 6.33752 17.0305 6.13502 17.9512 6.13502C19.153 6.13502 20.4524 6.7594 21.4762 7.84502C19.8374 9.0019 19.0705 10.8056 19.2262 12.555C19.3818 14.3231 20.4468 16.0013 22.1962 16.875L22.1887 16.8914C21.8141 17.7073 21.5644 18.2513 21.0112 19.095C20.5518 19.7944 20.0062 20.5594 19.4062 21.135C18.8062 21.7106 18.1705 22.0744 17.5312 22.08C16.9143 22.0856 16.5637 21.9019 16.0312 21.66C15.4987 21.4181 14.8105 21.1406 13.7512 21.15C12.6937 21.1556 11.9962 21.4219 11.4562 21.66C10.9162 21.8981 10.5618 22.0856 9.94116 22.08C9.28491 22.0744 8.67554 21.7556 8.09616 21.225C7.51679 20.6944 6.99366 19.9706 6.53616 19.275C4.01616 15.435 3.81366 10.9238 5.26116 8.70002C6.32241 7.0669 9.08616 6.13502 9.50616 6.13502Z" fill="black"/>
<path d="M16.9762 1.14002C16.9443 2.1094 16.6124 3.05815 16.0612 3.76502C15.4837 4.50752 14.5124 5.02127 13.5712 5.17502C13.588 4.24315 13.9555 3.27752 14.5162 2.59502C15.1049 1.88252 16.0799 1.36877 16.9762 1.14002Z" fill="black"/>
</g>
<defs>
<clipPath id="clip0_1_77">
<rect width="24" height="24" fill="white"/>
</clipPath>
</defs>
</svg>
